<svg width="1189" height="228" viewBox="0 0 1189 228" fill="none" xmlns="http://www.w3.org/2000/svg">
<path fill-rule="evenodd" clip-rule="evenodd" d="M276.797 1.05902C249.739 3.13452 224.215 14.378 207.381 31.638C194.735 44.604 186.219 59.238 181.226 76.5825C172.465 107.022 175.152 142.685 188.246 169.75C200.137 194.33 220.351 212.141 246.136 220.757C260.19 225.453 271.372 227.16 288.25 227.183C308.758 227.212 325.582 223.853 341.25 216.602C369.008 203.755 387.964 180.376 396.263 148.75C399.548 136.232 400.509 128.165 400.517 113.035C400.536 78.7295 389.613 50.657 368.198 29.9705C346.026 8.55352 313.447 -1.75198 276.797 1.05902ZM505.13 0.999522C470.285 3.92452 441.353 19.9295 424.236 45.75C417.387 56.082 413.203 65.3535 409.571 78.25C402.701 102.647 403.969 135.15 412.76 160.008C414.86 165.943 420.596 177.305 424.216 182.699C442.233 209.544 469.945 224.569 506.029 227.057C528.723 228.622 549.628 224.248 567.633 214.168C595.007 198.844 613.178 169.874 617.448 134.75C617.682 132.825 617.789 131.155 617.685 131.04C617.582 130.925 605.854 129.203 591.623 127.214C577.393 125.224 563.594 123.281 560.958 122.894L556.166 122.192L555.279 126.971C554.162 132.999 551.603 141.507 549.269 146.957C544.101 159.026 535.555 166.49 524.254 168.805C519.143 169.852 505.854 169.528 501.25 168.245C484.647 163.617 474.624 151.145 470.917 130.5C469.492 122.564 469.355 105.922 470.659 99.074C473.197 85.736 477.864 76.4935 485.856 68.978C490.531 64.5815 495.897 61.7115 502.75 59.9415C506.542 58.962 508.43 58.786 514.75 58.8225C521.372 58.861 522.776 59.024 526.75 60.214C533.187 62.1415 537.082 64.4755 541.75 69.202C544.766 72.256 546.323 74.3585 548.08 77.751C550.784 82.975 553.495 91.226 554.731 98C555.833 104.039 555.819 104 556.759 104C557.193 104 568.844 102.196 582.649 99.99C596.455 97.784 610.169 95.608 613.125 95.1535C617.106 94.542 618.5 94.1395 618.5 93.603C618.5 93.2045 618.147 90.487 617.717 87.564C610.641 39.532 580.833 8.72702 534.911 1.98702C527.32 0.873021 512.495 0.381522 505.13 0.999522ZM1064.75 1.07152C1035.87 3.34002 1008.79 16.0315 992.128 35.1055C984.703 43.6085 981.015 49.021 976.425 58.1495C963.572 83.713 960.621 117.275 968.501 148.286C979.623 192.059 1011.9 220.113 1058.25 226.299C1067.31 227.509 1085.35 227.515 1094.5 226.312C1147.77 219.311 1181.62 184.054 1188.02 128.898C1188.29 126.617 1188.51 119.794 1188.51 113.736C1188.53 91.936 1184.97 75.1115 1176.77 58.25C1169.52 43.3555 1158.72 30.443 1145.75 21.15C1141.58 18.162 1133.61 13.45 1130.2 11.9525C1108.66 2.50452 1088.72 -0.810479 1064.75 1.07152ZM0.5 36.75V67.5H29H57.5V144.75V222H89.75H122V144.75V67.5H150.5H179V36.75V6.00002H89.75H0.5V36.75ZM668.653 22.375C631.413 122.559 597.58 213.647 596.223 217.378L594.541 222.007L627.833 221.878L661.127 221.75L666.656 205.372L672.187 188.994L711.656 189.122L751.124 189.25L756.454 205.5L761.784 221.75L796.674 221.878C815.863 221.949 831.451 221.825 831.314 221.603C831.1 221.257 757.098 21.6675 752.904 10.125L751.406 6.00002H713.073H674.74L668.653 22.375ZM788.5 36.75V67.5H817H845.5V144.75V222H877.75H910V144.75V67.5H938.5H967V36.75V6.00002H877.75H788.5V36.75ZM296.25 59.237C309.472 61.1375 319.895 67.4265 326.582 77.54C333.174 87.511 336.121 98.448 336.134 113C336.163 143.827 325.039 162.326 303 168.1C299.279 169.076 297.474 169.215 288.5 169.223C277.47 169.233 274.882 168.852 267.82 166.172C258.529 162.646 250.001 153.865 245.78 143.477C242.204 134.676 240.829 126.286 240.828 113.25C240.827 104.799 241 102.437 241.944 98C246.364 77.2185 259.244 63.3075 277.323 59.7865C284.609 58.368 289.263 58.233 296.25 59.237ZM1083.01 59.025C1089.09 59.779 1092.63 60.7825 1097.81 63.227C1103.15 65.7425 1106.74 68.29 1110.35 72.124C1120.6 83.01 1125.46 100.064 1123.99 119.99C1121.99 147.168 1111.53 162.521 1091.25 168.081C1087.77 169.036 1085.93 169.182 1077 169.214C1064.44 169.258 1061.28 168.657 1053.02 164.656C1047.91 162.183 1046.85 161.428 1043.27 157.745C1035.81 150.069 1031.95 141.678 1029.69 128.25C1028.5 121.151 1028.48 106.34 1029.67 100.074C1032.08 87.2525 1036.97 77.461 1044.57 70.2145C1053.74 61.466 1068.36 57.2095 1083.01 59.025ZM714.763 77.375C716.639 83.3925 733.101 134.19 733.883 136.375C734.06 136.869 729.44 137 711.844 137H689.581L698.467 110.625C703.354 96.119 708.342 81.0435 709.55 77.125C710.759 73.2065 711.909 70 712.106 70C712.303 70 713.499 73.3185 714.763 77.375Z" fill="black"/>
</svg>
